# AST/ASF file generated using VICON BodyLanguage
# -----------------------------------------------
:version 1.10
:name VICON
:units
  mass 1.0
  length 0.45
  angle deg
:documentation
   .ast/.asf automatically generated from VICON data using
   VICON BodyBuilder and BodyLanguage model FoxedUp or BRILLIANT.MOD
:root
   order TX TY TZ RX RY RZ
   axis XYZ
   position 0 0 0  
   orientation 0 0 0 
:bonedata
  begin
     id 1 
     name lhipjoint
     direction 0.570549 -0.739093 0.358072 
     length 2.41801 
     axis 0 0 0  XYZ
  end
  begin
     id 2 
     name lfemur
     direction 0.34202 -0.939693 0  
     length 7.44434  
     axis 0 0 20  XYZ
    dof rx ry rz
    limits (-160.0 20.0)
           (-70.0 70.0)
           (-60.0 70.0)
  end
  begin
     id 3 
     name ltibia
     direction 0.34202 -0.939693 0   
     length 7.60047   
     axis 0 0 20   XYZ
    dof rx
    limits (-10.0 170.0)
  end
  begin
     id 4 
     name lfoot
     direction 0.0909041 -0.249757 0.964032   
     length 2.03437   
     axis -90 7.62852e-016 20   XYZ
    dof rx rz
    limits (-45.0 90.0)
           (-70.0 20.0)
  end
  begin
     id 5 
     name ltoes
     direction 1.53547e-011 -4.2174e-011 1   
     length 1.02054   
     axis -90 7.62852e-016 20   XYZ
    dof rx
    limits (-90.0 20.0)
  end
  begin
     id 6 
     name rhipjoint
     direction -0.558096 -0.746754 0.361784   
     length 2.3932  
     axis 0 0 0  XYZ 
  end
  begin
     id 7 
     name rfemur
     direction -0.34202 -0.939693 0   
     length 7.3886   
     axis 0 0 -20   XYZ
    dof rx ry rz
    limits (-160.0 20.0)
           (-70.0 70.0)
           (-70.0 60.0)
  end
  begin
     id 8 
     name rtibia
     direction -0.34202 -0.939693 0   
     length 7.4839   
     axis 0 0 -20   XYZ
    dof rx
    limits (-10.0 170.0)
 end
 begin
     id 9 
     name rfoot
     direction -0.114619 -0.314914 0.942174   
     length 2.25127  
     axis -90 -7.62852e-016 -20   XYZ
    dof rx rz
    limits (-45.0 90.0)
           (-20.0 70.0)
  end
  begin
     id 10 
     name rtoes
     direction -1.53518e-011 -4.21881e-011 1   
     length 1.11821   
     axis -90 -7.62852e-016 -20   XYZ
    dof rx
    limits (-90.0 20.0)
  end
  begin
     id 11 
     name lowerback
     direction -0.00902269 0.996426 -0.0839821   
     length 2.25052   
     axis 0 0 0   XYZ
    dof rx ry rz
    limits (-20.0 45.0)
           (-30.0 30.0)
           (-30.0 30.0)
  end
  begin
     id 12 
     name upperback
     direction 0.0370973 0.999169 -0.0168941   
     length 2.24876   
     axis 0 0 0   XYZ
    dof rx ry rz
    limits (-20.0 45.0)
           (-30.0 30.0)
           (-30.0 30.0)
  end
  begin
     id 13 
     name thorax
     direction 0.0402726 0.998931 0.0227027   
     length 2.26408   
     axis 0 0 0   XYZ
    dof rx ry rz
    limits (-20.0 45.0)
           (-30.0 30.0)
           (-30.0 30.0)
  end
  begin
     id 14 
     name lowerneck
     direction -0.0733697 0.98508 0.155675   
     length 1.58204   
     axis 0 0 0   XYZ
    dof rx ry rz
    limits (-20.0 45.0)
           (-30.0 30.0)
           (-30.0 30.0)
  end
  begin
     id 15 
     name upperneck
     direction 0.0426554 0.993501 -0.105526   
     length 1.61222   
     axis 0 0 0   XYZ
    dof rx ry rz
    limits (-20.0 45.0)
           (-30.0 30.0)
           (-30.0 30.0)
  end
  begin
     id 16
     name head
     direction 0.020792 0.998384 -0.0528868  
     length 1.61527  
     axis 0 0 0   XYZ
    dof rx ry rz
    limits (-20.0 45.0)
           (-30.0 30.0)
           (-30.0 30.0)
  end
  begin
     id 17 
     name lclavicle
     direction 0.967109 0.155462 -0.201325  
     length 3.59357  
     axis 0 0 0   XYZ
    dof ry rz
    limits (-20.0 10.0)
           (0.0 20.0)
  end
  begin
     id 18 
     name lhumerus
     direction 1 -4.48968e-011 2.38195e-027   
     length 5.38154   
     axis 180 -30 -90   XYZ
    dof rx ry rz
    limits (-60.0 90.0)
           (-90.0 90.0)
           (-90.0 90.0)
  end
  begin
     id 19
     name lradius
     direction 1 -4.48961e-011 4.85371e-027   
     length 3.33312   
     axis 180 -30 -90   XYZ
    dof rx
    limits (-10.0 170.0)
  end
  begin
     id 20
     name lwrist
     direction 1 -4.48961e-011 4.76515e-027   
     length 1.66656   
     axis -3.27502e-015 90 90   XYZ
    dof ry
    limits (-180.0 0.0)
 end
  begin
     id 21 
     name lhand
     direction 1 -4.48951e-011 9.53074e-027   
     length 0.710789   
     axis -6.08098e-015 90 90   XYZ
    dof rx rz
    limits (-90.0 90.0)
           (-45.0 45.0)
  end
  begin
     id 22 
     name lfingers
     direction 1 -4.48953e-011 1.90613e-026   
     length 0.573057   
     axis -1.21619e-014 90 90   XYZ
    dof rx
    limits (0.0 90.0)
  end
  begin
     id 23
     name lthumb
     direction 0.707107 -6.34973e-011 0.707107   
     length 0.822798   
     axis -90 45 -9.86923e-015   XYZ
    dof rx rz
    limits (-45.0 45.0)
           (-45.0 45.0)
  end
  begin
     id 24 
     name rclavicle
     direction -0.9585 0.265289 -0.104398   
     length 3.42039  
     axis 0 0 0   XYZ 
    dof ry rz
    limits (-10.0 20.0)
           (-20.0 0.0)
  end
  begin
     id 25 
     name rhumerus
     direction -1 -4.48977e-011 2.21478e-027  
     length 5.16954   
     axis 180 30 90   XYZ
    dof rx ry rz
    limits (-90.0 60.0)
           (-90.0 90.0)
           (-90.0 90.0)
  end
  begin
     id 26 
     name rradius
     direction -1 -4.48967e-011 5.63677e-027   
     length 3.38287   
     axis 180 30 90   XYZ
    dof rx
    limits (-10.0 170.0)
  end
  begin
     id 27 
     name rwrist
     direction -1 -4.48967e-011 4.76501e-027   
     length 1.69144   
     axis -3.27502e-015 -90 -90   XYZ
    dof ry
    limits (-180.0 0.0)
  end
  begin
     id 28
     name rhand
     direction -1 -4.48902e-011 9.53292e-027   
     length 0.817967   
     axis -6.08098e-015 -90 -90   XYZ
    dof rx rz
    limits (-90.0 90.0)
           (-45.0 45.0)
  end
  begin
     id 29
     name rfingers
     direction -1 -4.49012e-011 1.90561e-026   
     length 0.659466   
     axis -1.21619e-014 -90 -90   XYZ
    dof rx
    limits (0.0 90.0)
  end
  begin
     id 30
     name rthumb
     direction -0.707107 -6.34944e-011 0.707107   
     length 0.946865   
     axis -90 -45 9.86923e-015   XYZ
    dof rx rz
    limits (-45.0 45.0)
           (-45.0 45.0)
  end
:hierarchy
  begin
    root lhipjoint rhipjoint lowerback
    lhipjoint lfemur
    lfemur ltibia
    ltibia lfoot
    lfoot ltoes
    rhipjoint rfemur
    rfemur rtibia
    rtibia rfoot
    rfoot rtoes
    lowerback upperback
    upperback thorax
    thorax lowerneck lclavicle rclavicle
    lowerneck upperneck
    upperneck head
    lclavicle lhumerus
    lhumerus lradius
    lradius lwrist
    lwrist lhand lthumb
    lhand lfingers
    rclavicle rhumerus
    rhumerus rradius
    rradius rwrist
    rwrist rhand rthumb
    rhand rfingers
  end

#!OML:ASF F:\twosubjects\two\wednesday\Session 1\Justin1.ASF
:FULLY-SPECIFIED
:DEGREES
1466
root 7.29354 17.7583 19.9929 -194.712 97.631 -554.647
lowerback 8.34806 -0.385225 1.89855
upperback 3.62922 -0.186334 3.00116
thorax -0.922527 -0.0403833 2.04545
lowerneck -19.4414 1.36978 -6.45693
upperneck 20.5234 4.37617 -1.46199
head 9.63748 1.40366 1.16438
rclavicle -7.95139e-016 -1.51076e-014
rhumerus 36.6404 25.9856 -53.0919
rradius 53.6227
rwrist -0.346069
rhand -22.7761 42.2669
rfingers 7.12502
rthumb 3.6593 12.3185
lclavicle -7.95139e-016 -1.51076e-014
lhumerus 23.1909 -10.0805 59.6325
lradius 45.8543
lwrist -21.8644
lhand -10.2796 31.6465
lfingers 7.12502
lthumb 15.7144 61.0285
rfemur -12.3603 -4.9352 10.7981
rtibia 31.6455
rfoot -14.3424 -12.6684
rtoes 0.490613
lfemur -23.3565 12.5007 -9.64236
ltibia 43.3137
lfoot -16.6178 11.087
ltoes 11.304
1467
root 7.31901 17.7586 19.9697 -203.295 96.8299 -563.577
lowerback 7.96541 -0.412539 2.61987
upperback 3.53257 -0.175009 3.20053
thorax -0.812604 -0.027479 1.84325
lowerneck -19.4302 1.2916 -6.44754
upperneck 20.2245 4.23137 -1.41697
head 9.53206 1.35157 1.15464
rclavicle 1.92821e-014 -4.77083e-015
rhumerus 36.8745 26.2286 -52.912
rradius 53.7499
rwrist -0.339971
rhand -22.9858 42.0444
rfingers 7.12502
rthumb 3.45685 12.0927
lclavicle 1.92821e-014 -4.77083e-015
lhumerus 23.1243 -9.64477 59.5912
lradius 45.8296
lwrist -22.2048
lhand -10.021 31.7303
lfingers 7.12502
lthumb 15.9634 61.0925
rfemur -12.0972 -5.31691 11.6066
rtibia 31.2982
rfoot -14.4413 -13.3836
rtoes 1.2222
lfemur -23.9673 12.682 -8.59739
ltibia 43.1872
lfoot -16.3122 11.2193
ltoes 11.7257
1468
root 7.33834 17.7564 19.9492 -211.141 96.084 -571.707
lowerback 7.7122 -0.346202 2.91588
upperback 3.4089 -0.0690596 3.36882
thorax -0.801674 0.0275026 1.84115
lowerneck -19.8401 1.2644 -7.18916
upperneck 20.5351 4.22545 -0.429032
head 9.67209 1.39093 1.62684
rclavicle -4.37326e-015 3.18055e-014
rhumerus 36.9439 26.2895 -52.8682
rradius 53.8653
rwrist -0.483961
rhand -22.5461 42.32
rfingers 7.12502
rthumb 3.88144 12.3756
lclavicle -4.37326e-015 3.18055e-014
lhumerus 22.9222 -9.45489 59.4463
lradius 46.1867
lwrist -22.3552
lhand -9.85376 31.7859
lfingers 7.12502
lthumb 16.1245 61.1352
rfemur -11.8754 -5.59542 12.057
rtibia 31.0067
rfoot -14.7059 -14.1326
rtoes 1.99058
lfemur -24.4292 13.2389 -7.99935
ltibia 42.9478
lfoot -15.9319 11.3529
ltoes 10.3141
1469
root 7.3664 17.7623 19.9167 -216.922 95.2636 -577.689
lowerback 7.47991 -0.244451 2.82074
upperback 3.2657 0.0496682 3.39421
thorax -0.822571 0.0834809 1.91016
lowerneck -19.834 1.36534 -7.01393
upperneck 20.5155 4.33728 -0.531297
head 9.66598 1.44624 1.57774
rclavicle 8.94531e-016 -2.22639e-014
rhumerus 37.0198 26.4153 -52.8406
rradius 53.8979
rwrist -0.777226
rhand -22.3016 42.6218
rfingers 7.12502
rthumb 4.11748 12.6818
lclavicle 8.94531e-016 -2.22639e-014
lhumerus 22.5849 -9.87908 58.693
lradius 46.9602
lwrist -21.7029
lhand -9.77879 32.0105
lfingers 7.12502
lthumb 16.1967 61.3539
rfemur -11.6198 -6.00496 11.9336
rtibia 30.8135
rfoot -15.0086 -14.6198
rtoes 3.62077
lfemur -24.6688 13.9037 -7.93325
ltibia 42.5975
lfoot -15.7488 11.4279
ltoes 9.79854
1470
root 7.39797 17.7588 19.8829 -219.571 94.3266 -580.3
lowerback 7.52518 -0.0727494 2.22699
upperback 3.11206 0.234871 3.28938
thorax -1.01089 0.167235 2.1199
lowerneck -19.6058 1.33531 -6.60879
upperneck 20.335 4.26735 -1.01765
head 9.5859 1.39853 1.32808
rclavicle 2.5842e-015 8.74653e-015
rhumerus 36.9113 26.5457 -52.9197
rradius 53.9856
rwrist -0.744659
rhand -22.271 42.7349
rfingers 7.12502
rthumb 4.14709 12.7955
lclavicle 2.5842e-015 8.74653e-015
lhumerus 22.3747 -10.1916 58.0972
lradius 47.1986
lwrist -21.2629
lhand -9.41945 32.0634
lfingers 7.12502
lthumb 16.5426 61.3783
rfemur -11.1225 -6.39319 11.2547
rtibia 30.6252
rfoot -15.2455 -14.9457
rtoes 4.60514
lfemur -24.668 14.9468 -8.48718
ltibia 42.2525
lfoot -15.0645 12.142
ltoes 5.13917
1471
root 7.42875 17.7509 19.844 -221.348 93.2336 -581.864
lowerback 7.81875 0.111173 1.43362
upperback 2.92882 0.429793 3.17958
thorax -1.37146 0.256497 2.43559
lowerneck -19.1519 1.28095 -6.72226
upperneck 20.0637 4.20275 -1.1161
head 9.41148 1.36534 1.29409
rclavicle -1.0635e-014 -3.81667e-014
rhumerus 36.7349 26.7552 -52.8851
rradius 54.0905
rwrist -0.681332
rhand -22.1589 42.6912
rfingers 7.12502
rthumb 4.2553 12.754
lclavicle -1.0635e-014 -3.81667e-014
lhumerus 22.2348 -9.84821 58.3566
lradius 46.681
lwrist -21.77
lhand -9.19968 31.6026
lfingers 7.12502
lthumb 16.7542 60.8997
rfemur -10.3577 -6.78917 10.2948
rtibia 30.3311
rfoot -15.0166 -15.3852
rtoes 1.69375
lfemur -24.4087 15.555 -9.19186
ltibia 41.9721
lfoot -14.9776 12.7175
ltoes 5.57277
1472
root 7.45491 17.7528 19.7973 -243.778 93.0171 -604.346
lowerback 7.58607 0.139144 2.00809
upperback 2.99084 0.509201 3.33587
thorax -1.17776 0.302152 2.26781
lowerneck -19.4842 1.34154 -6.96401
upperneck 20.2365 4.32639 -0.823689
head 9.51514 1.42875 1.45783
rclavicle -2.18663e-015 -3.18055e-014
rhumerus 37.2372 26.7413 -52.5469
rradius 54.0646
rwrist -0.82889
rhand -22.3105 42.3045
rfingers 7.12502
rthumb 4.10892 12.3643
lclavicle -2.18663e-015 -3.18055e-014
lhumerus 22.5748 -9.37044 58.267
lradius 46.2321
lwrist -22.0443
lhand -9.32879 31.5735
lfingers 7.12502
lthumb 16.6299 60.881
rfemur -9.7917 -7.15443 10.7608
rtibia 29.9685
rfoot -14.6161 -16.1885
rtoes -1.95883
lfemur -24.6549 15.9242 -8.62157
ltibia 41.8757
lfoot -14.9188 13.1914
ltoes 6.94101
1473
root 7.48073 17.7542 19.7468 -266.47 93.7314 -627.192
lowerback 7.1924 0.194929 3.11454
upperback 3.10402 0.650509 3.48714
thorax -0.83557 0.386472 1.79371
lowerneck -19.9315 1.28204 -6.67508
upperneck 20.3714 4.2069 -0.858764
head 9.65367 1.38037 1.3911
rclavicle -1.09332e-015 -7.15625e-015
rhumerus 37.6109 26.4067 -52.487
rradius 54.0866
rwrist -0.837221
rhand -22.3425 41.9612
rfingers 7.12502
rthumb 4.07804 12.0205
lclavicle -1.09332e-015 -7.15625e-015
lhumerus 23.014 -9.59728 57.437
lradius 46.4996
lwrist -21.6326
lhand -9.39538 32.0644
lfingers 7.12502
lthumb 16.5658 61.3773
rfemur -9.31591 -7.48025 11.7267
rtibia 29.5484
rfoot -14.5697 -16.9263
rtoes -2.62935
lfemur -25.2564 16.6695 -7.68922
ltibia 41.9801
lfoot -14.7089 13.8082
ltoes 7.29211
1474
root 7.50875 17.7497 19.694 -280.255 94.3526 -641.108
lowerback 7.21167 0.278347 3.65291
upperback 2.89324 0.809894 3.54183
thorax -1.05822 0.466442 1.53494
lowerneck -19.8497 1.28034 -6.36272
upperneck 20.3145 4.12589 -0.966809
head 9.6292 1.35742 1.2901
rclavicle -9.74045e-015 -3.18055e-014
rhumerus 37.4478 26.3293 -52.9748
rradius 54.1022
rwrist -0.675219
rhand -21.9762 41.9898
rfingers 7.12502
rthumb 4.43175 12.0562
lclavicle -9.74045e-015 -3.18055e-014
lhumerus 22.7466 -9.9009 56.8284
lradius 47.0834
lwrist -21.3851
lhand -9.37759 32.3003
lfingers 7.12502
lthumb 16.5829 61.6118
rfemur -8.8171 -7.68695 12.1356
rtibia 29.0809
rfoot -15.1292 -17.4939
rtoes -0.00588721
lfemur -25.8942 17.8248 -7.40956
ltibia 42.1876
lfoot -14.5457 14.5152
ltoes 7.78949
1475
root 7.53555 17.7354 19.6443 -290.276 95.321 -651.222
lowerback 7.17972 0.248313 4.24886
upperback 2.79425 0.822401 3.67114
thorax -1.13577 0.476544 1.33421
lowerneck -19.0717 1.49938 -6.26644
upperneck 19.1843 4.3161 -1.16462
head 9.09381 1.47473 1.20442
rclavicle 1.5704e-014 2.78299e-014
rhumerus 37.728 26.3535 -53.3119
rradius 53.9494
rwrist -0.444456
rhand -21.9981 42.0228
rfingers 7.12502
rthumb 4.41056 12.0887
lclavicle 1.5704e-014 2.78299e-014
lhumerus 22.5487 -9.76765 56.2616
lradius 47.2345
lwrist -21.1998
lhand -9.51006 32.2784
lfingers 7.12502
lthumb 16.4554 61.6005
rfemur -8.32593 -7.86301 12.7381
rtibia 28.6881
rfoot -15.9981 -18.2016
rtoes 3.82806
lfemur -26.5295 19.0431 -7.03332
ltibia 42.3925
lfoot -14.3854 15.1202
ltoes 7.62821
1476
root 7.56385 17.7203 19.5949 -298.322 96.2733 -659.248
lowerback 6.99109 0.24447 4.57375
upperback 2.93154 0.832934 3.83268
thorax -0.886592 0.492794 1.32153
lowerneck -20.5558 1.57927 -5.8853
upperneck 20.2539 4.46088 -1.0769
head 9.73732 1.52779 1.2288
rclavicle -3.37934e-015 -7.95139e-015
rhumerus 38.3722 26.3154 -52.9719
rradius 53.9016
rwrist -0.403128
rhand -22.4748 41.9724
rfingers 7.12502
rthumb 3.9503 12.0293
lclavicle -3.37934e-015 -7.95139e-015
lhumerus 22.7627 -9.38593 55.7996
lradius 47.085
lwrist -21.0649
lhand -9.62514 31.8689
lfingers 7.12502
lthumb 16.3446 61.2002
rfemur -7.7346 -8.04856 13.133
rtibia 28.3877
rfoot -15.9192 -19.0016
rtoes 3.34816
lfemur -26.9834 19.9426 -6.8207
ltibia 42.5322
lfoot -14.2016 15.92
ltoes 7.94463
1477
root 7.59315 17.7174 19.5426 -307.186 96.9002 -668.179
lowerback 7.35577 0.250924 4.25717
upperback 2.5271 0.863886 3.89816
thorax -1.51303 0.492249 1.55841
lowerneck -20.2167 1.76831 -5.85112
upperneck 20.1062 4.66244 -1.00097
head 9.61559 1.64335 1.27023
rclavicle 1.28216e-014 -3.4191e-014
rhumerus 38.2402 26.7805 -52.9219
rradius 53.9834
rwrist -0.391356
rhand -22.7268 41.9662
rfingers 7.12502
rthumb 3.70697 12.0187
lclavicle 1.28216e-014 -3.4191e-014
lhumerus 22.2577 -9.12705 55.7392
lradius 46.9356
lwrist -21.3945
lhand -9.67578 31.0906
lfingers 7.12502
lthumb 16.2958 60.4258
rfemur -7.19704 -8.309 12.8961
rtibia 28.1246
rfoot -15.4674 -19.7496
rtoes 1.25045
lfemur -27.4917 20.675 -7.27932
ltibia 42.6055
lfoot -13.9556 16.7917
ltoes 9.89657
1478
root 7.62201 17.7182 19.4852 -313.913 97.9098 -675.111
lowerback 7.3795 0.248213 4.14719
upperback 2.20739 0.871509 4.00446
thorax -1.86035 0.488211 1.72795
lowerneck -19.7321 1.9421 -5.61277
upperneck 19.8527 4.83023 -1.18704
head 9.44495 1.73388 1.17877
rclavicle -3.77691e-015 1.11319e-014
rhumerus 38.0249 26.975 -53.4309
rradius 53.8808
rwrist 0.0488253
rhand -22.7941 41.7886
rfingers 7.12502
rthumb 3.64197 11.8399
lclavicle -3.77691e-015 1.11319e-014
lhumerus 21.9215 -9.14233 55.5612
lradius 47.0126
lwrist -21.4933
lhand -9.73249 31.2867
lfingers 7.12502
lthumb 16.2412 60.6264
rfemur -6.7819 -8.73374 12.8913
rtibia 27.8967
rfoot -16.0521 -20.3561
rtoes 3.34218
lfemur -28.2406 21.5758 -7.66204
ltibia 42.6662
lfoot -13.734 17.495
ltoes 11.3576
1479
root 7.65575 17.7087 19.4126 -319.537 99.0117 -680.807
lowerback 6.91695 0.326778 4.1506
upperback 2.36685 0.939883 4.03097
thorax -1.43874 0.530374 1.75185
lowerneck -19.9478 2.00394 -5.16779
upperneck 19.7795 4.86059 -1.4826
head 9.4767 1.74614 1.01128
rclavicle -1.39149e-014 4.21423e-014
rhumerus 38.1809 26.4049 -53.8445
rradius 53.649
rwrist 0.553968
rhand -22.7186 41.6464
rfingers 7.12502
rthumb 3.71487 11.699
lclavicle -1.39149e-014 4.21423e-014
lhumerus 22.3801 -9.31506 55.1461
lradius 47.1078
lwrist -21.2152
lhand -9.8415 32.1374
lfingers 7.12502
lthumb 16.1363 61.4857
rfemur -6.16566 -9.30415 12.7179
rtibia 27.6646
rfoot -16.473 -20.7894
rtoes 5.18999
lfemur -28.8666 22.4725 -8.19412
ltibia 42.8264
lfoot -13.9088 18.1667
ltoes 10.9279
